<svg width="20" height="15" viewBox="0 0 20 15" fill="none" xmlns="http://www.w3.org/2000/svg">
<path d="M10.25 7.68334C10.6947 7.29845 11.0513 6.82241 11.2957 6.28752C11.5402 5.75264 11.6667 5.17143 11.6667 4.58334C11.6667 3.47827 11.2277 2.41846 10.4463 1.63706C9.66489 0.855659 8.60508 0.416672 7.50001 0.416672C6.39494 0.416672 5.33513 0.855659 4.55373 1.63706C3.77233 2.41846 3.33334 3.47827 3.33334 4.58334C3.33334 5.17143 3.45984 5.75264 3.70428 6.28752C3.94872 6.82241 4.30536 7.29845 4.75001 7.68334C3.58346 8.21158 2.59373 9.06461 1.89916 10.1405C1.20459 11.2163 0.83457 12.4694 0.833344 13.75C0.833344 13.971 0.921141 14.183 1.07742 14.3393C1.2337 14.4955 1.44566 14.5833 1.66668 14.5833C1.88769 14.5833 2.09965 14.4955 2.25593 14.3393C2.41221 14.183 2.50001 13.971 2.50001 13.75C2.50001 12.4239 3.02679 11.1522 3.96448 10.2145C4.90216 9.27679 6.17393 8.75001 7.50001 8.75001C8.82609 8.75001 10.0979 9.27679 11.0355 10.2145C11.9732 11.1522 12.5 12.4239 12.5 13.75C12.5 13.971 12.5878 14.183 12.7441 14.3393C12.9004 14.4955 13.1123 14.5833 13.3333 14.5833C13.5544 14.5833 13.7663 14.4955 13.9226 14.3393C14.0789 14.183 14.1667 13.971 14.1667 13.75C14.1655 12.4694 13.7954 11.2163 13.1009 10.1405C12.4063 9.06461 11.4166 8.21158 10.25 7.68334ZM7.50001 7.08334C7.00556 7.08334 6.52221 6.93672 6.11108 6.66201C5.69996 6.38731 5.37953 5.99686 5.19031 5.54005C5.00109 5.08323 4.95158 4.58057 5.04805 4.09561C5.14451 3.61066 5.38261 3.1652 5.73224 2.81557C6.08187 2.46594 6.52733 2.22784 7.01228 2.13138C7.49724 2.03491 7.9999 2.08442 8.45672 2.27364C8.91353 2.46286 9.30398 2.78329 9.57868 3.19441C9.85339 3.60554 10 4.08889 10 4.58334C10 5.24638 9.73662 5.88227 9.26778 6.35111C8.79894 6.81995 8.16305 7.08334 7.50001 7.08334ZM15.6167 7.35001C16.15 6.74945 16.4984 6.00755 16.6198 5.21362C16.7413 4.41969 16.6308 3.60757 16.3015 2.87501C15.9722 2.14244 15.4382 1.52067 14.7637 1.08452C14.0893 0.64838 13.3032 0.416457 12.5 0.416672C12.279 0.416672 12.067 0.504469 11.9108 0.66075C11.7545 0.81703 11.6667 1.02899 11.6667 1.25001C11.6667 1.47102 11.7545 1.68298 11.9108 1.83926C12.067 1.99554 12.279 2.08334 12.5 2.08334C13.1631 2.08334 13.7989 2.34673 14.2678 2.81557C14.7366 3.28441 15 3.9203 15 4.58334C14.9988 5.02104 14.8828 5.45076 14.6634 5.82952C14.444 6.20829 14.1291 6.52282 13.75 6.74167C13.6265 6.81294 13.5233 6.91473 13.4503 7.03729C13.3774 7.15985 13.3371 7.29909 13.3333 7.44167C13.3299 7.58314 13.3625 7.72317 13.4281 7.84855C13.4937 7.97394 13.5901 8.08055 13.7083 8.15834L14.0333 8.37501L14.1417 8.43334C15.1462 8.90977 15.9936 9.66333 16.5842 10.6053C17.1747 11.5472 17.4838 12.6383 17.475 13.75C17.475 13.971 17.5628 14.183 17.7191 14.3393C17.8754 14.4955 18.0873 14.5833 18.3083 14.5833C18.5294 14.5833 18.7413 14.4955 18.8976 14.3393C19.0539 14.183 19.1417 13.971 19.1417 13.75C19.1485 12.4712 18.8282 11.2119 18.2112 10.0917C17.5943 8.97156 16.7011 8.02777 15.6167 7.35001Z" fill="#0035E8"/>
</svg>
