<svg width="20" height="21" viewBox="0 0 20 21" fill="none" xmlns="http://www.w3.org/2000/svg">
<path d="M6.66668 9.66666C6.50186 9.66666 6.34074 9.71553 6.2037 9.8071C6.06666 9.89867 5.95985 10.0288 5.89678 10.1811C5.8337 10.3334 5.8172 10.5009 5.84936 10.6626C5.88151 10.8242 5.96088 10.9727 6.07742 11.0892C6.19397 11.2058 6.34245 11.2852 6.5041 11.3173C6.66575 11.3495 6.83331 11.333 6.98558 11.2699C7.13785 11.2068 7.268 11.1 7.35957 10.963C7.45114 10.8259 7.50001 10.6648 7.50001 10.5C7.50001 10.279 7.41221 10.067 7.25593 9.91073C7.09965 9.75445 6.88769 9.66666 6.66668 9.66666ZM10 9.66666C9.83519 9.66666 9.67408 9.71553 9.53703 9.8071C9.39999 9.89867 9.29318 10.0288 9.23011 10.1811C9.16704 10.3334 9.15054 10.5009 9.18269 10.6626C9.21484 10.8242 9.29421 10.9727 9.41076 11.0892C9.5273 11.2058 9.67578 11.2852 9.83744 11.3173C9.99909 11.3495 10.1666 11.333 10.3189 11.2699C10.4712 11.2068 10.6013 11.1 10.6929 10.963C10.7845 10.8259 10.8333 10.6648 10.8333 10.5C10.8333 10.279 10.7455 10.067 10.5893 9.91073C10.433 9.75445 10.221 9.66666 10 9.66666ZM13.3333 9.66666C13.1685 9.66666 13.0074 9.71553 12.8704 9.8071C12.7333 9.89867 12.6265 10.0288 12.5634 10.1811C12.5004 10.3334 12.4839 10.5009 12.516 10.6626C12.5482 10.8242 12.6275 10.9727 12.7441 11.0892C12.8606 11.2058 13.0091 11.2852 13.1708 11.3173C13.3324 11.3495 13.5 11.333 13.6522 11.2699C13.8045 11.2068 13.9347 11.1 14.0262 10.963C14.1178 10.8259 14.1667 10.6648 14.1667 10.5C14.1667 10.279 14.0789 10.067 13.9226 9.91073C13.7663 9.75445 13.5544 9.66666 13.3333 9.66666ZM10 2.16666C8.90566 2.16666 7.82203 2.3822 6.81098 2.80099C5.79993 3.21978 4.88128 3.83361 4.10745 4.60743C2.54465 6.17024 1.66668 8.28985 1.66668 10.5C1.65939 12.4243 2.32567 14.2904 3.55001 15.775L1.88334 17.4417C1.76771 17.5588 1.68938 17.7077 1.65824 17.8693C1.62709 18.031 1.64453 18.1982 1.70834 18.35C1.77756 18.4999 1.88976 18.6259 2.03072 18.712C2.17167 18.798 2.33501 18.8403 2.50001 18.8333H10C12.2101 18.8333 14.3298 17.9553 15.8926 16.3925C17.4554 14.8297 18.3333 12.7101 18.3333 10.5C18.3333 8.28985 17.4554 6.17024 15.8926 4.60743C14.3298 3.04463 12.2101 2.16666 10 2.16666ZM10 17.1667H4.50834L5.28334 16.3917C5.36208 16.3145 5.42473 16.2224 5.46764 16.1209C5.51055 16.0193 5.53289 15.9102 5.53334 15.8C5.53021 15.5802 5.44036 15.3705 5.28334 15.2167C4.19217 14.1267 3.51266 12.6921 3.36059 11.1573C3.20852 9.62253 3.5933 8.08249 4.44937 6.79959C5.30544 5.51669 6.57984 4.57029 8.05544 4.12163C9.53104 3.67298 11.1166 3.74983 12.5419 4.33908C13.9672 4.92834 15.1441 5.99355 15.872 7.35323C16.6 8.71291 16.8341 10.2829 16.5343 11.7958C16.2345 13.3087 15.4194 14.6709 14.228 15.6502C13.0365 16.6295 11.5423 17.1654 10 17.1667Z" fill="#0035E8"/>
</svg>
