<svg width="18" height="17" viewBox="0 0 18 17" fill="none" xmlns="http://www.w3.org/2000/svg">
<path d="M7.33332 9.33333H1.49999C1.27898 9.33333 1.06701 9.42113 0.910734 9.57741C0.754454 9.73369 0.666656 9.94565 0.666656 10.1667V16C0.666656 16.221 0.754454 16.433 0.910734 16.5893C1.06701 16.7455 1.27898 16.8333 1.49999 16.8333H7.33332C7.55434 16.8333 7.7663 16.7455 7.92258 16.5893C8.07886 16.433 8.16666 16.221 8.16666 16V10.1667C8.16666 9.94565 8.07886 9.73369 7.92258 9.57741C7.7663 9.42113 7.55434 9.33333 7.33332 9.33333ZM6.49999 15.1667H2.33332V11H6.49999V15.1667ZM16.5 0.166664H10.6667C10.4456 0.166664 10.2337 0.254461 10.0774 0.410742C9.92112 0.567022 9.83332 0.778984 9.83332 0.999997V6.83333C9.83332 7.05434 9.92112 7.26631 10.0774 7.42259C10.2337 7.57887 10.4456 7.66666 10.6667 7.66666H16.5C16.721 7.66666 16.933 7.57887 17.0892 7.42259C17.2455 7.26631 17.3333 7.05434 17.3333 6.83333V0.999997C17.3333 0.778984 17.2455 0.567022 17.0892 0.410742C16.933 0.254461 16.721 0.166664 16.5 0.166664ZM15.6667 6H11.5V1.83333H15.6667V6ZM16.5 9.33333H10.6667C10.4456 9.33333 10.2337 9.42113 10.0774 9.57741C9.92112 9.73369 9.83332 9.94565 9.83332 10.1667V16C9.83332 16.221 9.92112 16.433 10.0774 16.5893C10.2337 16.7455 10.4456 16.8333 10.6667 16.8333H16.5C16.721 16.8333 16.933 16.7455 17.0892 16.5893C17.2455 16.433 17.3333 16.221 17.3333 16V10.1667C17.3333 9.94565 17.2455 9.73369 17.0892 9.57741C16.933 9.42113 16.721 9.33333 16.5 9.33333ZM15.6667 15.1667H11.5V11H15.6667V15.1667ZM7.33332 0.166664H1.49999C1.27898 0.166664 1.06701 0.254461 0.910734 0.410742C0.754454 0.567022 0.666656 0.778984 0.666656 0.999997V6.83333C0.666656 7.05434 0.754454 7.26631 0.910734 7.42259C1.06701 7.57887 1.27898 7.66666 1.49999 7.66666H7.33332C7.55434 7.66666 7.7663 7.57887 7.92258 7.42259C8.07886 7.26631 8.16666 7.05434 8.16666 6.83333V0.999997C8.16666 0.778984 8.07886 0.567022 7.92258 0.410742C7.7663 0.254461 7.55434 0.166664 7.33332 0.166664ZM6.49999 6H2.33332V1.83333H6.49999V6Z" fill="#0035E8"/>
</svg>
