<svg width="138" height="158" viewBox="0 0 138 158" fill="none" xmlns="http://www.w3.org/2000/svg">
<rect x="0.5" y="0.5" width="137" height="157" rx="68.5" stroke="#E5EFFF"/>
<rect x="29.5" y="39.5" width="79" height="79" rx="39.5" fill="url(#paint0_linear_194_1034)"/>
<rect x="29.5" y="39.5" width="79" height="79" rx="39.5" stroke="#E5EFFF"/>
<g clip-path="url(#clip0_194_1034)">
<path d="M66.8218 72.4674L83.1967 73.3131L79.4923 91.8354C79.2283 93.151 78.2165 94.0593 77.0726 93.9967L62.6599 93.2554L66.8218 72.4674Z" fill="url(#paint1_linear_194_1034)"/>
<path d="M66.824 72.4676L58.2891 64L73.8632 64.804C74.3823 64.8353 74.8839 65.065 75.2798 65.4617L83.1989 73.3133L66.824 72.4676Z" fill="url(#paint2_linear_194_1034)"/>
<path d="M62.6612 93.2661L55.2525 85.9156C54.5574 85.2265 54.2582 84.1406 54.4606 83.0965L58.2881 64L66.8319 72.4676L62.6612 93.2661Z" fill="url(#paint3_linear_194_1034)"/>
</g>
<defs>
<linearGradient id="paint0_linear_194_1034" x1="30" y1="40" x2="108" y2="118" gradientUnits="userSpaceOnUse">
<stop stop-color="#D8E7FF"/>
<stop offset="1" stop-color="white"/>
</linearGradient>
<linearGradient id="paint1_linear_194_1034" x1="64.1944" y1="96.8892" x2="90.3649" y2="66.7212" gradientUnits="userSpaceOnUse">
<stop stop-color="#0062FF"/>
<stop offset="0.4661" stop-color="#5DC8FF"/>
<stop offset="0.5041" stop-color="#65D1FF"/>
<stop offset="0.5995" stop-color="#57C1FF"/>
<stop offset="0.7857" stop-color="#3198FF"/>
<stop offset="0.9945" stop-color="#0062FF"/>
</linearGradient>
<linearGradient id="paint2_linear_194_1034" x1="73.8829" y1="59.5661" x2="63.0738" y2="81.7924" gradientUnits="userSpaceOnUse">
<stop stop-color="#0062FF"/>
<stop offset="0.9245" stop-color="#5DC8FF"/>
<stop offset="1" stop-color="#65D1FF"/>
</linearGradient>
<linearGradient id="paint3_linear_194_1034" x1="54.2403" y1="85.6991" x2="73.9895" y2="69.7956" gradientUnits="userSpaceOnUse">
<stop stop-color="#0062FF"/>
<stop offset="0.9245" stop-color="#5DC8FF"/>
<stop offset="1" stop-color="#65D1FF"/>
</linearGradient>
<clipPath id="clip0_194_1034">
<rect width="30" height="30" fill="white" transform="translate(54 64)"/>
</clipPath>
</defs>
</svg>
